<?xml version="1.0" standalone="no"?>
<!DOCTYPE svg PUBLIC "-//W3C//DTD SVG 20010904//EN"
 "http://www.w3.org/TR/2001/REC-SVG-20010904/DTD/svg10.dtd">
<svg version="1.0" xmlns="http://www.w3.org/2000/svg"
 width="512.000000pt" height="512.000000pt" viewBox="0 0 512.000000 512.000000"
 preserveAspectRatio="xMidYMid meet">

<g transform="translate(0.000000,512.000000) scale(0.100000,-0.100000)"
fill="#000000" stroke="none">
<path d="M4435 5021 c-120 -34 -229 -111 -296 -210 -25 -37 -45 -54 -79 -67
-134 -51 -354 -173 -595 -332 -184 -121 -190 -124 -220 -113 -347 140 -558
184 -880 184 -258 -1 -451 -34 -695 -119 -498 -173 -929 -554 -1170 -1034
-151 -302 -220 -593 -220 -932 0 -315 57 -589 181 -875 l22 -51 -80 -124
c-231 -354 -359 -622 -394 -822 -53 -312 152 -499 474 -432 578 119 1752 1023
2827 2176 536 575 1007 1190 1231 1607 l44 82 50 6 c79 10 169 43 232 85 71
48 89 63 134 120 138 171 155 416 43 608 -38 65 -141 162 -210 199 -118 63
-274 80 -399 44z m232 -335 c195 -91 128 -386 -87 -386 -157 0 -251 163 -178
305 21 40 44 60 98 84 59 27 104 26 167 -3z m-588 -374 c26 -74 65 -132 132
-199 l52 -52 -53 -93 c-496 -862 -1740 -2189 -2795 -2979 -437 -327 -825 -544
-1027 -574 l-48 -7 0 42 c0 65 54 210 134 365 68 131 164 293 191 323 11 13
32 -9 142 -145 10 -13 30 -2 135 69 779 527 1786 1485 2483 2363 197 248 369
491 361 510 -2 7 -45 45 -95 85 -50 40 -91 75 -91 79 1 14 419 267 446 270 6
1 21 -25 33 -57z"/>
<path d="M4324 2948 c-312 -409 -710 -856 -1168 -1313 -441 -439 -884 -832
-1275 -1131 -78 -59 -138 -111 -134 -114 30 -26 298 -77 478 -92 363 -28 738
44 1070 207 862 423 1327 1375 1130 2315 -18 89 -42 180 -48 187 -3 2 -27 -24
-53 -59z"/>
</g>
</svg>
